<?xml version="1.0" encoding="utf-8"?>
<svg width="120" height="98" viewBox="0 0 120 98" fill="none" xmlns="http://www.w3.org/2000/svg">
    <path d="M45.2789 54.8297C45.7055 47.3311 49.4237 40.7053 55.0573 36.0236C60.5703 31.4212 67.9746 28.6042 76.1031 28.6042C84.1915 28.6042 91.5957 31.4172 97.1086 36.0236C102.742 40.7053 106.444 47.3311 106.887 54.8297C107.314 62.5268 104.171 69.7081 98.678 75.0246C93.0443 80.4205 85.0768 83.8326 76.1031 83.8326C67.1295 83.8326 59.1217 80.4443 53.5282 75.0246C48.0153 69.7081 44.8765 62.5665 45.3192 54.8695L45.2789 54.8297Z" fill="white"/>
    <path d="M62.1388 53.9116C62.3579 50.0581 64.2687 46.6532 67.1638 44.2473C69.9968 41.8822 73.8018 40.4346 77.979 40.4346C82.1355 40.4346 85.9404 41.8801 88.7735 44.2473C91.6685 46.6532 93.571 50.0581 93.7985 53.9116C94.0177 57.867 92.4026 61.5574 89.5799 64.2895C86.6848 67.0624 82.5904 68.8158 77.979 68.8158C73.3675 68.8158 69.2524 67.0746 66.378 64.2895C63.5449 61.5574 61.9319 57.8874 62.1594 53.932L62.1388 53.9116Z" fill="#265787"/>
    <path d="M37.3239 62.067C37.3508 63.5758 37.8388 66.5117 38.5709 68.7953C40.1094 73.6478 42.7274 78.1334 46.3463 82.0685C50.0685 86.1258 54.6592 89.3881 59.9531 91.7124C65.5158 94.1387 71.5541 95.3824 77.8198 95.3824C84.0856 95.3742 90.1239 94.1101 95.6866 91.6512C100.98 89.3065 105.571 86.0443 109.293 81.9665C112.933 77.9907 115.539 73.5052 117.069 68.6526C117.844 66.206 118.334 63.7185 118.531 61.2311C118.723 58.7844 118.643 56.3174 118.289 53.8503C117.598 49.0589 115.911 44.553 113.326 40.4752C110.968 36.7033 107.908 33.4207 104.268 30.6478L104.277 30.6417L67.6747 2.91287C67.6416 2.88841 67.6147 2.86188 67.5796 2.83945C65.1808 1.02077 61.1277 1.02689 58.5014 2.84966C55.8338 4.69281 55.5236 7.74297 57.9017 9.65952L57.8914 9.66972L73.1733 21.9234L26.6452 21.9723H26.5832C22.7369 21.9764 19.0353 24.4598 18.3116 27.6201C17.5588 30.8211 20.1727 33.492 24.1844 33.492L24.1782 33.5063L47.7524 33.4615L5.56704 65.2681C5.51327 65.3068 5.45537 65.3476 5.40574 65.3863C1.43535 68.3835 0.153237 73.3788 2.65541 76.5186C5.19894 79.7197 10.5962 79.74 14.6079 76.5369L37.5618 57.9831C37.5618 57.9831 37.2268 60.491 37.2536 61.9793L37.3239 62.067ZM96.4662 70.4468C91.7307 75.1974 85.0927 77.9091 77.9377 77.9091C70.7621 77.9213 64.1241 75.2586 59.3886 70.508C57.0725 68.1837 55.3768 65.5331 54.3222 62.6991C53.2944 59.9058 52.8953 56.9494 53.16 53.9726C53.4102 51.057 54.2912 48.2638 55.7035 45.7559C57.0849 43.2889 58.9915 41.0461 61.3283 39.15C65.9397 35.4596 71.7919 33.4411 77.9129 33.4411C84.0546 33.4329 89.9068 35.4167 94.5182 39.1092C96.855 40.9931 98.7574 43.2277 100.143 45.6948C101.555 48.2026 102.438 50.9755 102.687 53.9115C102.947 56.8882 102.548 59.8446 101.52 62.6379C100.47 65.4923 98.7699 68.1429 96.4538 70.4672L96.4662 70.4468Z" fill="#EA7600"/>
</svg>