<?xml version="1.0" encoding="utf-8"?>
<svg width="120" height="50" viewBox="0 0 120 50" fill="none" xmlns="http://www.w3.org/2000/svg">
    <path d="M71.9182 17.0432C69.287 17.0432 67.3276 18.3281 67.3276 21.4205C67.3276 23.7505 68.619 25.3678 71.7766 25.3678C74.4529 25.3678 76.2705 23.7996 76.2705 21.3243C76.2705 18.5192 74.6439 17.0432 71.9182 17.0432ZM66.6559 38.8774C66.0333 39.6374 65.4129 40.4448 65.4129 41.3977C65.4129 43.2988 67.8506 43.8709 71.1992 43.8709C73.9732 43.8709 77.7518 43.6778 77.7518 41.1128C77.7518 39.5883 75.934 39.4939 73.6369 39.3507L66.6559 38.8774ZM80.8123 17.1871C81.6717 18.2813 82.5817 19.8037 82.5817 21.9915C82.5817 27.2708 78.4207 30.3623 72.3961 30.3623C70.864 30.3623 69.477 30.1725 68.617 29.9351L67.0382 32.4556L71.7246 32.7403C79.9992 33.2646 84.876 33.5029 84.876 39.8266C84.876 45.2978 80.0467 48.3875 71.7246 48.3875C63.0684 48.3875 59.7686 46.1994 59.7686 42.4424C59.7686 40.3012 60.7253 39.1622 62.3992 37.5902C60.8204 36.9266 60.2951 35.7381 60.2951 34.4534C60.2951 33.4062 60.8204 32.4552 61.6826 31.5509C62.5432 30.6481 63.4993 29.7431 64.6473 28.6971C62.3041 27.5558 60.5341 25.0824 60.5341 21.5623C60.5341 16.0932 64.1693 12.3372 71.4852 12.3372C73.5421 12.3372 74.7862 12.5254 75.8863 12.8126H85.2129V16.8544L80.8123 17.1871Z"
          fill="#413000"/>
    <path d="M93.6312 8.54399C90.9045 8.54399 89.3268 6.97301 89.3268 4.26092C89.3268 1.55224 90.9045 0.0766602 93.6312 0.0766602C96.4053 0.0766602 97.9835 1.55224 97.9835 4.26092C97.9835 6.97297 96.4053 8.54399 93.6312 8.54399ZM87.4607 37.1269V33.3714L89.9006 33.0394C90.5705 32.9429 90.6655 32.8014 90.6655 32.0862V18.103C90.6655 17.5809 90.5227 17.2465 90.0429 17.1049L87.4607 16.2004L87.9866 12.3492H97.8873V32.0866C97.8873 32.849 97.9335 32.9433 98.6528 33.0398L101.092 33.3717V37.1273H87.4603"
          fill="#413000"/>
    <path d="M120.004 35.2835C117.947 36.2811 114.935 37.185 112.207 37.185C106.516 37.185 104.365 34.9041 104.365 29.5273V17.0668C104.365 16.782 104.365 16.591 103.981 16.591H100.633V12.3581C104.843 11.8812 106.516 9.788 107.042 4.60376H111.586V11.3599C111.586 11.6917 111.586 11.8354 111.969 11.8354H118.712V16.5909H111.586V27.9579C111.586 30.7645 112.257 31.8575 114.838 31.8575C116.179 31.8575 117.564 31.5256 118.712 31.0971L120.004 35.2835Z"
          fill="#413000"/>
    <path d="M49.1412 22.8016L27.2721 1.05535C26.0138 -0.197162 23.9713 -0.197162 22.7114 1.05535L18.1705 5.57172L23.9305 11.3C25.2695 10.8504 26.8044 11.1519 27.8712 12.2131C28.9437 13.2809 29.2446 14.8203 28.7812 16.1565L34.3328 21.6776C35.6759 21.2173 37.2255 21.5147 38.298 22.5831C39.7973 24.0738 39.7973 26.4894 38.298 27.9805C36.7983 29.472 34.3695 29.472 32.869 27.9805C31.7416 26.8584 31.4628 25.211 32.0338 23.8295L26.8563 18.6805L26.8559 32.23C27.2214 32.41 27.5664 32.6502 27.871 32.9518C29.37 34.4424 29.37 36.8574 27.871 38.3505C26.3716 39.841 23.9417 39.841 22.4438 38.3505C20.9447 36.8576 20.9447 34.4425 22.4438 32.9518C22.8143 32.584 23.243 32.3056 23.7005 32.119V18.4436C23.2428 18.2578 22.8146 17.9814 22.4436 17.6107C21.308 16.4823 21.0345 14.8248 21.6169 13.438L15.9387 7.79016L0.944875 22.7012C-0.314958 23.9546 -0.314958 25.9859 0.944875 27.2385L22.8127 48.9848C24.0717 50.2373 26.1135 50.2373 27.3742 48.9848L49.141 27.3413C50.4004 26.0881 50.4004 24.0562 49.141 22.8035"
          fill="#F05133"/>
</svg>