<?xml version="1.0" encoding="utf-8"?>
<svg width="120" height="120" viewBox="0 0 120 120" fill="none" xmlns="http://www.w3.org/2000/svg">
    <path d="M21.25 0H98.75C110.5 0 120 9.74359 120 21.7949V98.2051C120 110.256 110.5 120 98.75 120H21.25C9.5 120 0 110.256 0 98.2051V21.7949C0 9.74359 9.5 0 21.25 0Z"
          fill="#330000"/>
    <path d="M58 71.795H39.4L35.6 83.8462C35.5 84.3078 35.1 84.6155 34.65 84.5642H25.25C24.7 84.5642 24.55 84.2565 24.7 83.6411L40.8 36.1027C40.95 35.5898 41.1 35.0257 41.3 34.4103C41.5 33.3334 41.6 32.2052 41.6 31.077C41.55 30.8206 41.75 30.5642 42 30.5129H54.95C55.35 30.5129 55.55 30.6668 55.6 30.9232L73.85 83.7437C74 84.3078 73.85 84.5642 73.35 84.5642H62.9C62.55 84.6155 62.2 84.3591 62.1 84.0001L58 71.795ZM42.3 61.3847H55C54.7 60.3078 54.3 59.0257 53.85 57.6924C53.4 56.3078 52.95 54.8206 52.5 53.2821C52 51.6924 51.55 50.1539 51.05 48.5642C50.55 46.9744 50.1 45.4873 49.7 44.0001C49.3 42.5642 48.95 41.2309 48.6 40.0001H48.5C48.05 42.2052 47.5 44.4103 46.8 46.6155C46.05 49.077 45.3 51.6411 44.5 54.2052C43.8 56.8206 43.05 59.2309 42.3 61.3847ZM85 39.4873C83.35 39.5386 81.75 38.8719 80.55 37.6924C79.4 36.4103 78.8 34.718 78.85 32.9745C78.8 31.2309 79.45 29.5898 80.65 28.4104C81.85 27.2309 83.45 26.6155 85.1 26.6155C87.05 26.6155 88.55 27.2309 89.65 28.4104C90.75 29.6411 91.35 31.2821 91.3 32.9745C91.35 34.718 90.75 36.4103 89.55 37.6924C88.4 38.9232 86.7 39.5898 85 39.4873ZM79.4 84.0001V44.5129C79.4 44.0001 79.6 43.795 80.05 43.795H89.95C90.4 43.795 90.6 44.0514 90.6 44.5129V84.0001C90.6 84.5642 90.4 84.8206 89.95 84.8206H80.15C79.65 84.8206 79.4 84.5129 79.4 84.0001Z"
          fill="#FF9A00"/>
</svg>