<?xml version="1.0" encoding="utf-8"?>
<svg width="120" height="120" viewBox="0 0 120 120" fill="none" xmlns="http://www.w3.org/2000/svg">
    <path d="M21.25 0H98.75C110.5 0 120 9.74359 120 21.7949V98.2051C120 110.256 110.5 120 98.75 120H21.25C9.5 120 0 110.256 0 98.2051V21.7949C0 9.74359 9.5 0 21.25 0Z"
          fill="#49021F"/>
    <path d="M43.5999 31.3847V84.2052C43.5999 84.7693 43.35 85.0257 42.9 85.0257H33.0999C32.6499 85.0257 32.45 84.7693 32.45 84.2052V31.3847C32.45 30.9231 32.7 30.718 33.15 30.718H42.9C43.2 30.6667 43.4999 30.8718 43.5499 31.2308C43.5999 31.2821 43.5999 31.3334 43.5999 31.3847Z"
          fill="#FF3366"/>
    <path d="M72.4999 85.6411C68.7999 85.6924 65.0999 84.9232 61.7499 83.3334C58.5999 81.8462 55.9999 79.3847 54.1999 76.3591C52.3499 73.2308 51.4499 69.3334 51.4499 64.6667C51.3999 60.8719 52.3499 57.1283 54.1999 53.8462C56.0999 50.5129 58.8499 47.7437 62.1499 45.8975C65.6499 43.8975 69.8499 42.9232 74.7999 42.9232C75.0499 42.9232 75.3999 42.9232 75.8499 42.9744C76.2999 43.0257 76.7999 43.0257 77.3999 43.077V26.8719C77.3999 26.5129 77.5499 26.3078 77.8999 26.3078H88.0499C88.2999 26.2565 88.4999 26.4616 88.5499 26.6667V26.7693V75.5898C88.5499 76.5129 88.5999 77.5385 88.6499 78.6667C88.7499 79.7437 88.7999 80.7693 88.8499 81.6411C88.8499 82.0001 88.6999 82.3078 88.3499 82.4616C85.7499 83.5898 82.9999 84.4103 80.1999 84.9232C77.6999 85.3847 75.0999 85.6411 72.4999 85.6411ZM77.3999 75.3847V52.8206C76.9499 52.718 76.4999 52.6155 76.0499 52.5642C75.4999 52.5129 74.9499 52.4616 74.3999 52.4616C72.4499 52.4616 70.4999 52.8719 68.7499 53.795C67.0499 54.6667 65.5999 55.9488 64.4999 57.5898C63.3999 59.2309 62.8499 61.436 62.8499 64.1026C62.7999 65.8975 63.0999 67.6924 63.6999 69.3847C64.1999 70.7693 64.9499 72.0001 65.9499 73.0257C66.8999 73.9488 68.0499 74.6667 69.3499 75.077C70.6999 75.5385 72.0999 75.7437 73.4999 75.7437C74.2499 75.7437 74.9499 75.6924 75.5999 75.6411C76.2499 75.6924 76.8499 75.5898 77.3999 75.3847Z"
          fill="#FF3366"/>
</svg>