<?xml version="1.0" encoding="utf-8"?>
<svg width="120" height="120" viewBox="0 0 120 120" fill="none" xmlns="http://www.w3.org/2000/svg">
    <path fill-rule="evenodd" clip-rule="evenodd" d="M119.102 26.6859C119.147 26.8431 119.169 27.0053 119.17 27.1682V52.4882C119.17 52.8131 119.08 53.1324 118.911 53.4136C118.742 53.6948 118.498 53.928 118.205 54.0897L96.1032 66.3251V90.5766C96.1032 91.2366 95.7384 91.8459 95.1432 92.1782L49.008 117.715C48.9024 117.773 48.7872 117.81 48.672 117.849C48.6288 117.863 48.588 117.888 48.5424 117.9C48.2199 117.981 47.8809 117.981 47.5584 117.9C47.5056 117.886 47.4576 117.858 47.4072 117.84C47.3016 117.803 47.1912 117.77 47.0904 117.715L0.9648 92.1782C0.671778 92.0163 0.428306 91.783 0.258923 91.5019C0.0895402 91.2207 0.000232175 90.9016 0 90.5766L0 14.6166C0 14.4505 0.024 14.2889 0.0672 14.132C0.0816 14.0789 0.1152 14.0305 0.1344 13.9774C0.1704 13.8805 0.204 13.7812 0.2568 13.6912C0.2928 13.6312 0.3456 13.5828 0.3888 13.5274C0.444 13.4535 0.4944 13.3774 0.5592 13.3128C0.6144 13.2597 0.6864 13.2205 0.7488 13.1743C0.8184 13.1189 0.8808 13.0589 0.96 13.0151L24.0264 0.246626C24.3184 0.0850425 24.6495 0 24.9864 0C25.3233 0 25.6544 0.0850425 25.9464 0.246626L49.0104 13.0151H49.0152C49.092 13.0612 49.1568 13.1189 49.2264 13.172C49.2888 13.2182 49.3584 13.2597 49.4136 13.3105C49.4808 13.3774 49.5288 13.4535 49.5864 13.5274C49.6272 13.5828 49.6824 13.6312 49.716 13.6912C49.7712 13.7835 49.8024 13.8805 49.8408 13.9774C49.86 14.0305 49.8936 14.0789 49.908 14.1343C49.9522 14.2916 49.9748 14.4537 49.9752 14.6166V62.0605L69.1944 51.4197V27.1659C69.1944 27.0043 69.2184 26.8405 69.2616 26.6859C69.2784 26.6305 69.3096 26.582 69.3288 26.5289C69.3672 26.432 69.4008 26.3328 69.4536 26.2428C69.4896 26.1828 69.5424 26.1343 69.5832 26.0789C69.6408 26.0051 69.6888 25.9289 69.756 25.8643C69.8112 25.8112 69.8808 25.772 69.9432 25.7259C70.0152 25.6705 70.0776 25.6105 70.1544 25.5666L93.2232 12.7982C93.5152 12.6364 93.8462 12.5512 94.1832 12.5512C94.5202 12.5512 94.8513 12.6364 95.1432 12.7982L118.207 25.5666C118.289 25.6128 118.351 25.6705 118.423 25.7235C118.483 25.7697 118.553 25.8112 118.608 25.862C118.675 25.9289 118.723 26.0051 118.781 26.0789C118.824 26.1343 118.877 26.1828 118.91 26.2428C118.966 26.3328 118.997 26.432 119.035 26.5289C119.057 26.582 119.088 26.6305 119.102 26.6859ZM115.325 51.4197V30.3643L107.254 34.832L96.1032 41.0051V62.0605L115.327 51.4197H115.325ZM92.2608 89.5082V68.4389L81.2928 74.462L49.9728 91.6497V112.917L92.2608 89.5082ZM3.8448 17.8128V89.5082L46.128 112.915V91.652L24.0384 79.6312L24.0312 79.6266L24.0216 79.622C23.9472 79.5805 23.8848 79.5205 23.8152 79.4697C23.7552 79.4235 23.6856 79.3866 23.6328 79.3359L23.628 79.3289C23.5656 79.2712 23.5224 79.1997 23.4696 79.1351C23.4216 79.0728 23.364 79.0197 23.3256 78.9551L23.3232 78.9482C23.28 78.8789 23.2536 78.7959 23.2224 78.7174C23.1912 78.6482 23.1504 78.5835 23.1312 78.5097C23.1072 78.422 23.1024 78.3274 23.0928 78.2374C23.0832 78.1682 23.064 78.0989 23.064 78.0297V78.0251V28.4535L11.916 22.2782L3.8448 17.8128ZM24.9888 3.98047L5.772 14.6166L24.984 25.2528L44.1984 14.6143L24.984 3.98047H24.9888ZM34.9824 70.3589L46.1304 64.1882V17.8128L38.0592 22.2805L26.9088 28.4535V74.8289L34.9824 70.3589ZM94.1832 16.532L74.9688 27.1682L94.1832 37.8043L113.395 27.1659L94.1832 16.532ZM92.2608 41.0051L81.1104 34.832L73.0392 30.3643V51.4197L84.1872 57.5905L92.2608 62.0605V41.0051ZM48.048 88.4536L76.2312 72.9828L90.3192 65.252L71.1192 54.6228L49.0128 66.8605L28.8648 78.0135L48.048 88.4536Z" fill="#FF2D20"/>
</svg>
