<?xml version="1.0" encoding="utf-8"?>
<svg width="120" height="74" viewBox="0 0 120 74" fill="none" xmlns="http://www.w3.org/2000/svg">
    <g clip-path="url(#clip0_10_50)">
        <path d="M59.3115 73.9234C58.9155 73.9234 58.5221 73.819 58.1749 73.6181L54.5571 71.466C54.0167 71.1623 54.2804 71.0549 54.4586 70.9931C55.1791 70.7396 55.3253 70.6823 56.0943 70.2435C56.1752 70.1972 56.281 70.2135 56.3637 70.2626L59.1431 71.9198C59.2434 71.9743 59.3859 71.9743 59.4789 71.9198L70.316 65.6344C70.4163 65.5772 70.4814 65.46 70.4814 65.34V52.7747C70.4814 52.6493 70.4163 52.5376 70.3138 52.4749L59.4811 46.195C59.3807 46.135 59.2478 46.135 59.1474 46.195L48.3169 52.4749C48.2119 52.5349 48.1452 52.6521 48.1452 52.772V65.3373C48.1452 65.4572 48.2103 65.5717 48.3133 65.629L51.281 67.3516C52.8923 68.1611 53.877 67.2071 53.877 66.2477V53.8459C53.877 53.6687 54.0153 53.5325 54.1917 53.5325H55.5643C55.7352 53.5325 55.8762 53.6687 55.8762 53.8459V66.2531C55.8762 68.4119 54.7044 69.652 52.6672 69.652C52.0405 69.652 51.5468 69.652 50.1688 68.9706L47.3259 67.3243C46.6234 66.9155 46.1893 66.1523 46.1893 65.3373V52.772C46.1893 51.9543 46.6234 51.1911 47.3259 50.7877L58.1738 44.4996C58.8601 44.1098 59.7716 44.1098 60.4525 44.4996L71.2868 50.7904C71.9867 51.1966 72.4234 51.957 72.4234 52.7747V65.34C72.4234 66.155 71.9867 66.9155 71.2868 67.3243L60.4525 73.6124C60.1053 73.8141 59.7119 73.9177 59.3104 73.9177" fill="#689F63"/>
        <path d="M62.6589 65.265C57.9172 65.265 56.923 63.078 56.923 61.2436C56.923 61.0691 57.063 60.9301 57.2369 60.9301H58.6366C58.7912 60.9301 58.9214 61.0432 58.9459 61.1967C59.1574 62.6299 59.7868 63.3527 62.6541 63.3527C64.9381 63.3527 65.9092 62.8343 65.9092 61.6173C65.9092 60.9168 65.6326 60.3962 62.0844 60.0473C59.1168 59.7529 57.283 59.096 57.283 56.7111C57.283 54.5142 59.1276 53.2059 62.2173 53.2059C65.6868 53.2059 67.4066 54.4161 67.6236 57.0163C67.6318 57.1063 67.5992 57.1935 67.5396 57.2589C67.4799 57.3216 67.3958 57.3598 67.309 57.3598H65.9011C65.7546 57.3598 65.6271 57.2562 65.5973 57.1145C65.2582 55.6072 64.439 55.1247 62.2119 55.1247C59.719 55.1247 59.4287 55.997 59.4287 56.6511C59.4287 57.4443 59.7705 57.676 63.1342 58.123C66.4653 58.5673 68.0468 59.1942 68.0468 61.5464C68.0468 63.9177 66.0774 65.2778 62.6432 65.2778M75.843 51.9521H76.2065C76.5049 51.9521 76.5618 51.7422 76.5618 51.6195C76.5618 51.2979 76.3421 51.2979 76.22 51.2979H75.8457L75.843 51.9521ZM75.4008 50.9218H76.2065C76.4832 50.9218 77.0257 50.9218 77.0257 51.5432C77.0257 51.9766 76.749 52.0665 76.5835 52.1211C76.9063 52.1429 76.928 52.3555 76.9715 52.6553C76.9932 52.8434 77.0284 53.1677 77.0935 53.2767H76.5971C76.5835 53.1677 76.5076 52.5681 76.5076 52.5354C76.475 52.4018 76.4289 52.3364 76.2635 52.3364H75.8538V53.2795H75.4008V50.9218ZM74.4324 52.0938C74.4324 53.0696 75.2164 53.86 76.1794 53.86C77.1505 53.86 77.9344 53.0532 77.9344 52.0938C77.9344 51.1153 77.1396 50.3385 76.1766 50.3385C75.2272 50.3385 74.4297 51.1044 74.4297 52.0911M78.2708 52.0992C78.2708 53.2549 77.3295 54.198 76.1821 54.198C75.0428 54.198 74.0933 53.2658 74.0933 52.0992C74.0933 50.9109 75.0645 50.0005 76.1821 50.0005C77.3078 50.0005 78.2681 50.9136 78.2681 52.0992" fill="#689F63"/>
        <path fill-rule="evenodd" clip-rule="evenodd" d="M25.753 24.7577C25.753 24.2562 25.4899 23.7956 25.0591 23.5462L13.5694 16.9037C13.3754 16.7893 13.1582 16.7293 12.9379 16.7211H12.8191C12.5988 16.7293 12.3815 16.7893 12.1843 16.9037L0.695135 23.5462C0.267078 23.7969 0.000152588 24.2576 0.000152588 24.7591L0.0253803 42.6504C0.0253803 42.8984 0.152875 43.1301 0.369887 43.2527C0.581474 43.3836 0.847315 43.3836 1.0589 43.2527L7.88937 39.3223C8.32068 39.0645 8.58381 38.6087 8.58381 38.1121V29.7539C8.58381 29.2551 8.84693 28.7944 9.27689 28.5464L12.1849 26.8636C12.4008 26.7382 12.6379 26.6761 12.8793 26.6761C13.1169 26.6761 13.3594 26.7377 13.5694 26.8633L16.476 28.5456C16.9062 28.7936 17.1704 29.2543 17.1704 29.7531V38.1108C17.1704 38.6068 17.4371 39.0647 17.8662 39.321L24.6924 43.2486C24.9067 43.3768 25.1733 43.3768 25.3868 43.2486C25.5973 43.126 25.7308 42.8943 25.7308 42.6463L25.753 24.7577ZM79.9703 34.073C79.9703 34.1975 79.9044 34.3128 79.7967 34.3744L75.8503 36.6602C75.7432 36.722 75.6108 36.722 75.5039 36.6602L71.557 34.3744C71.4485 34.3126 71.3834 34.1973 71.3834 34.073V29.4949C71.3834 29.3701 71.4485 29.2551 71.5543 29.1924L75.4985 26.9028C75.607 26.8401 75.7399 26.8401 75.8484 26.9028L79.7953 29.1924C79.9038 29.2551 79.9689 29.3701 79.9689 29.4949L79.9703 34.073ZM81.0364 0.165157C80.821 0.0446825 80.5589 0.0479533 80.3463 0.172516C80.1347 0.297897 80.0039 0.526852 80.0039 0.774888V18.4917C80.0039 18.6661 79.9117 18.827 79.7614 18.9142C79.6122 19.0014 79.4264 19.0014 79.2759 18.9142L76.3977 17.2485C75.9691 16.9994 75.4413 16.9994 75.011 17.2485L63.5175 23.9136C63.0881 24.1616 62.8231 24.6223 62.8231 25.1183V38.4523C62.8231 38.9511 63.0881 39.409 63.5175 39.6598L75.011 46.3295C75.4402 46.5775 75.9686 46.5775 76.3991 46.3295L87.8926 39.657C88.3212 39.4063 88.5871 38.9484 88.5871 38.4496V5.21827C88.5871 4.71238 88.3131 4.24711 87.8736 3.99989L81.0364 0.165157ZM119.31 29.3745C119.737 29.1253 120 28.6653 120 28.1692V24.9376C120 24.4405 119.737 23.9817 119.309 23.7315L107.889 17.07C107.457 16.8192 106.928 16.8192 106.497 17.07L95.0063 23.7342C94.575 23.985 94.3118 24.4429 94.3118 24.9417V38.2702C94.3118 38.7717 94.5804 39.2351 95.0117 39.4831L106.429 46.022C106.85 46.2646 107.365 46.2673 107.791 46.0302L114.697 42.1734C114.914 42.0507 115.053 41.819 115.053 41.5683C115.053 41.3175 114.92 41.0831 114.703 40.9604L103.142 34.2935C102.925 34.1708 102.792 33.9391 102.792 33.6911V29.5099C102.792 29.2603 102.922 29.0302 103.139 28.9059L106.736 26.8208C106.95 26.6954 107.213 26.6954 107.428 26.8208L111.027 28.9059C111.242 29.0286 111.374 29.2603 111.374 29.5083V32.7954C111.374 33.0435 111.507 33.2752 111.722 33.4005C111.936 33.5232 112.202 33.5232 112.416 33.3978L119.31 29.3745Z" fill="#333333"/>
        <path fill-rule="evenodd" clip-rule="evenodd" d="M107.025 28.7508C107.106 28.7025 107.208 28.7025 107.291 28.7508L109.496 30.0291C109.578 30.0771 109.629 30.1654 109.629 30.2608V32.8202C109.629 32.9156 109.578 33.0039 109.496 33.0519L107.291 34.3302C107.208 34.3785 107.106 34.3785 107.025 34.3302L104.821 33.0519C104.737 33.0039 104.685 32.9156 104.685 32.8202V30.2608C104.685 30.1654 104.734 30.0771 104.818 30.0291L107.025 28.7508Z" fill="#689F63"/>
        <mask id="mask0_10_50" style="mask-type:luminance" maskUnits="userSpaceOnUse" x="31" y="16" width="27" height="31">
            <path d="M43.599 17.1365L32.1706 23.7645C31.7425 24.0125 31.4799 24.4705 31.4799 24.9654V38.2307C31.4799 38.726 31.7425 39.1836 32.1706 39.4316L43.5998 46.0648C44.0271 46.312 44.5539 46.312 44.9806 46.0648L56.4079 39.4316C56.8338 39.1836 57.0969 38.7257 57.0969 38.2307V24.9654C57.0969 24.4705 56.8338 24.0125 56.4052 23.7645L44.9795 17.1365C44.7652 17.013 44.5265 16.9512 44.2877 16.9512C44.049 16.9512 43.8103 17.013 43.596 17.1365" fill="white"/>
        </mask>
        <g mask="url(#mask0_10_50)">
            <path d="M68.6458 22.6392L36.4425 6.77856L19.9305 40.6242L52.133 56.4857L68.6458 22.6392Z" fill="url(#paint0_linear_10_50)"/>
        </g>
        <mask id="mask1_10_50" style="mask-type:luminance" maskUnits="userSpaceOnUse" x="31" y="16" width="26" height="31">
            <path d="M31.7632 39.073C31.8725 39.2155 32.0092 39.339 32.1701 39.4317L41.9736 45.1215L43.6066 46.0646C43.8507 46.2063 44.1291 46.2663 44.4025 46.2459C44.4936 46.2385 44.5848 46.2213 44.6738 46.196L56.7272 24.02C56.6349 23.9191 56.527 23.8346 56.406 23.7638L48.9229 19.4218L44.9673 17.1349C44.855 17.0695 44.7332 17.0232 44.6092 16.9905L31.7632 39.073Z" fill="white"/>
        </mask>
        <g mask="url(#mask1_10_50)">
            <path d="M17.8396 27.3304L40.5785 58.2538L70.6509 35.929L47.9108 5.00635L17.8396 27.3304Z" fill="url(#paint1_linear_10_50)"/>
        </g>
        <mask id="mask2_10_50" style="mask-type:luminance" maskUnits="userSpaceOnUse" x="32" y="16" width="26" height="31">
            <path d="M44.1513 16.9588C43.9595 16.9779 43.7721 17.0378 43.5993 17.1365L32.2034 23.7454L44.4918 46.2349C44.6627 46.2103 44.8308 46.1531 44.9827 46.0648L56.4112 39.4316C56.7638 39.2261 57.0052 38.8783 57.0785 38.4842L44.5514 16.9814C44.4592 16.9632 44.367 16.9536 44.272 16.9536C44.2341 16.9536 44.1961 16.9555 44.1581 16.9591" fill="white"/>
        </mask>
        <g mask="url(#mask2_10_50)">
            <path d="M32.2029 16.9536V46.2354H57.0734V16.9536H32.2029Z" fill="url(#paint2_linear_10_50)"/>
        </g>
    </g>
    <defs>
        <linearGradient id="paint0_linear_10_50" x1="52.5344" y1="14.6839" x2="35.8959" y2="48.4644" gradientUnits="userSpaceOnUse">
            <stop offset="0.3" stop-color="#3E863D"/>
            <stop offset="0.5" stop-color="#55934F"/>
            <stop offset="0.8" stop-color="#5AAD45"/>
        </linearGradient>
        <linearGradient id="paint1_linear_10_50" x1="29.3453" y1="42.9693" x2="59.5205" y2="20.7799" gradientUnits="userSpaceOnUse">
            <stop offset="0.57" stop-color="#3E863D"/>
            <stop offset="0.72" stop-color="#619857"/>
            <stop offset="1" stop-color="#76AC64"/>
        </linearGradient>
        <linearGradient id="paint2_linear_10_50" x1="32.2113" y1="31.5953" x2="57.0781" y2="31.5953" gradientUnits="userSpaceOnUse">
            <stop offset="0.16" stop-color="#6BBF47"/>
            <stop offset="0.38" stop-color="#79B461"/>
            <stop offset="0.47" stop-color="#75AC64"/>
            <stop offset="0.7" stop-color="#659E5A"/>
            <stop offset="0.9" stop-color="#3E863D"/>
        </linearGradient>
        <clipPath id="clip0_10_50">
            <rect width="120" height="73.8462" fill="white" transform="translate(0 0.0769043)"/>
        </clipPath>
    </defs>
</svg>