<?xml version="1.0" encoding="utf-8"?>
<svg width="120" height="120" viewBox="0 0 120 120" fill="none" xmlns="http://www.w3.org/2000/svg">
    <path d="M21.25 0H98.75C110.5 0 120 9.74359 120 21.7949V98.2051C120 110.256 110.5 120 98.75 120H21.25C9.5 120 0 110.256 0 98.2051V21.7949C0 9.74359 9.5 0 21.25 0Z"
          fill="#001E36"/>
    <path d="M27 84.154V31.3847C27 31.0258 27.15 30.8206 27.5 30.8206C28.35 30.8206 29.15 30.8206 30.3 30.7693C31.5 30.7181 32.75 30.7181 34.1 30.6668C35.45 30.6155 36.9 30.6155 38.45 30.5642C40 30.5129 41.5 30.5129 43 30.5129C47.1 30.5129 50.5 31.0258 53.3 32.1027C55.8 32.9745 58.1 34.4104 60 36.3078C61.6 37.9488 62.85 39.9488 63.65 42.154C64.4 44.3078 64.8 46.5129 64.8 48.8206C64.8 53.2309 63.8 56.8719 61.8 59.7437C59.8 62.6155 57 64.7694 53.75 66.0001C50.35 67.2822 46.6 67.7437 42.5 67.7437C41.3 67.7437 40.5 67.7437 40 67.6924C39.5 67.6411 38.8 67.6411 37.85 67.6411V84.1027C37.9 84.4617 37.65 84.7693 37.3 84.8206C37.25 84.8206 37.2 84.8206 37.1 84.8206H27.6C27.2 84.8206 27 84.6155 27 84.154ZM37.9 40.7181V57.9488C38.6 58.0001 39.25 58.0514 39.85 58.0514H42.5C44.45 58.0514 46.4 57.7437 48.25 57.1283C49.85 56.6668 51.25 55.6924 52.35 54.4104C53.4 53.1283 53.9 51.3847 53.9 49.1283C53.95 47.5386 53.55 45.9488 52.75 44.5642C51.9 43.2309 50.7 42.2052 49.25 41.6411C47.4 40.8719 45.4 40.5642 43.35 40.6155C42.05 40.6155 40.9 40.6155 39.95 40.6668C38.95 40.6155 38.25 40.6668 37.9 40.7181Z"
          fill="#31A8FF"/>
    <path d="M96 54.8207C94.5 54.0002 92.9 53.4361 91.2 53.0771C89.35 52.6669 87.5 52.4104 85.6 52.4104C84.6 52.3592 83.55 52.513 82.6 52.7694C81.95 52.9233 81.4 53.2822 81.05 53.7951C80.8 54.2053 80.65 54.7181 80.65 55.1797C80.65 55.6412 80.85 56.1027 81.15 56.513C81.6 57.0771 82.2 57.5386 82.85 57.8976C84 58.513 85.2 59.0771 86.4 59.5899C89.1 60.513 91.7 61.7951 94.1 63.3335C95.75 64.4104 97.1 65.8463 98.05 67.5899C98.85 69.231 99.25 71.0258 99.2 72.872C99.25 75.2822 98.55 77.6925 97.25 79.6925C95.85 81.7438 93.9 83.3335 91.65 84.2566C89.2 85.3335 86.2 85.8976 82.6 85.8976C80.3 85.8976 78.05 85.6925 75.8 85.231C74.05 84.9233 72.3 84.3592 70.7 83.5899C70.35 83.3848 70.1 83.0258 70.15 82.6156V73.6925C70.15 73.5386 70.2 73.3335 70.35 73.231C70.5 73.1284 70.65 73.1797 70.8 73.2822C72.75 74.4617 74.8 75.2822 77 75.7951C78.9 76.3079 80.9 76.5643 82.9 76.5643C84.8 76.5643 86.15 76.3079 87.05 75.8463C87.85 75.4874 88.4 74.6156 88.4 73.6925C88.4 72.9745 88 72.3079 87.2 71.6412C86.4 70.9745 84.75 70.2053 82.3 69.231C79.75 68.3079 77.4 67.0771 75.2 65.5386C73.65 64.4104 72.35 62.9233 71.4 61.1797C70.6 59.5386 70.2 57.7438 70.25 55.9489C70.25 53.7438 70.85 51.6412 71.95 49.7438C73.2 47.6925 75.05 46.0515 77.2 45.0258C79.55 43.7951 82.5 43.231 86.05 43.231C88.1 43.231 90.2 43.3848 92.25 43.6925C93.75 43.8976 95.2 44.3079 96.55 44.872C96.75 44.9233 96.95 45.1284 97.05 45.3335C97.1 45.5386 97.15 45.7438 97.15 45.9489V54.3079C97.15 54.513 97.05 54.7181 96.9 54.8207C96.45 54.9233 96.2 54.9233 96 54.8207Z"
          fill="#31A8FF"/>
</svg>