<?xml version="1.0" encoding="utf-8"?>
<svg width="120" height="66" viewBox="0 0 120 66" fill="none" xmlns="http://www.w3.org/2000/svg">
    <mask id="mask0_114_130" style="mask-type:luminance" maskUnits="userSpaceOnUse" x="1" y="2" width="118"
          height="62">
        <path d="M1.68726 33.0001C1.68726 49.9126 27.7953 63.6233 59.9999 63.6233C92.2045 63.6233 118.313 49.9126 118.313 33.0001C118.313 16.0877 92.2045 2.37683 59.9999 2.37683C27.7953 2.37683 1.68726 16.0877 1.68726 33.0001Z"
              fill="white"/>
    </mask>
    <g mask="url(#mask0_114_130)">
        <path d="M1.68726 33.0001C1.68726 49.9126 27.7953 63.6233 59.9999 63.6233C92.2045 63.6233 118.313 49.9126 118.313 33.0001C118.313 16.0877 92.2045 2.37683 59.9999 2.37683C27.7953 2.37683 1.68726 16.0877 1.68726 33.0001Z"
              fill="url(#paint0_radial_114_130)"/>
    </g>
    <mask id="mask1_114_130" style="mask-type:luminance" maskUnits="userSpaceOnUse" x="-1" y="-2" width="122"
          height="70">
        <path d="M-0.742432 -1.1102H120.742V67.1104H-0.742432V-1.1102Z" fill="white"/>
    </mask>
    <g mask="url(#mask1_114_130)">
        <path d="M59.9999 61.3496C90.9466 61.3496 116.035 48.657 116.035 33C116.035 17.3431 90.9466 4.65033 59.9999 4.65033C29.0531 4.65033 3.96509 17.3431 3.96509 33C3.96509 48.657 29.0531 61.3496 59.9999 61.3496Z"
              fill="#777BB3"/>
    </g>
    <mask id="mask2_114_130" style="mask-type:luminance" maskUnits="userSpaceOnUse" x="-1" y="-2" width="122"
          height="70">
        <path d="M-0.742432 -1.1102H120.742V67.1104H-0.742432V-1.1102Z" fill="white"/>
    </mask>
    <path d="M33.369 36.515C35.9137 36.515 37.8133 36.0465 39.0153 35.123C40.2044 34.209 41.0257 32.6254 41.4562 30.4164C41.8575 28.3517 41.7046 26.91 41.0019 26.132C40.2833 25.3374 38.7297 24.9344 36.3844 24.9344H32.3178L30.0634 36.515H33.369ZM20.0684 50.7803C19.8796 50.7803 19.7003 50.696 19.5803 50.5503C19.4601 50.4048 19.4114 50.2132 19.4474 50.0282L25.4221 19.3392C25.4799 19.0426 25.7404 18.8282 26.0432 18.8282H38.9202C42.9671 18.8282 45.9794 19.9252 47.8727 22.0891C49.7762 24.2644 50.364 27.305 49.6197 31.1264C49.3168 32.6833 48.7959 34.1292 48.0714 35.4237C47.3461 36.7197 46.3875 37.9188 45.2218 38.9884C43.8264 40.2922 42.2471 41.2376 40.532 41.7939C38.844 42.3428 36.6763 42.6212 34.0891 42.6212H28.8749L27.3859 50.269C27.3281 50.5659 27.0678 50.7803 26.765 50.7803H20.0684Z"
          fill="black"/>
    <path d="M32.8395 25.566H36.3845C39.2151 25.566 40.1984 26.1861 40.5325 26.5556C41.0867 27.1691 41.1914 28.4628 40.8351 30.2965C40.4348 32.3495 39.6928 33.8051 38.6294 34.6225C37.5407 35.4592 35.7707 35.8833 33.3691 35.8833H30.831L32.8395 25.566ZM38.9203 18.1965H26.0431C25.4374 18.1965 24.9166 18.6252 24.8011 19.2187L18.8264 49.9076C18.7542 50.278 18.8517 50.661 19.0919 50.9522C19.3324 51.2434 19.6905 51.4119 20.0684 51.4119H26.7648C27.3708 51.4119 27.8915 50.9832 28.0071 50.3896L29.3966 43.2528H34.0891C36.7428 43.2528 38.9768 42.9639 40.7284 42.3943C42.5298 41.81 44.1871 40.8194 45.654 39.4499C46.8672 38.3356 47.8665 37.0849 48.6236 35.7321C49.381 34.3788 49.9252 32.8698 50.2409 31.2468C51.0244 27.2243 50.3879 24.0032 48.3492 21.6736C46.3304 19.3663 43.1579 18.1965 38.9203 18.1965ZM29.2958 37.1466H33.3691C36.069 37.1466 38.08 36.639 39.4014 35.6234C40.7229 34.6077 41.6142 32.9125 42.0774 30.537C42.5205 28.2563 42.3187 26.6468 41.4719 25.7091C40.624 24.7715 38.9285 24.3026 36.3845 24.3026H31.7963L29.2958 37.1466ZM38.9203 19.4598C42.7941 19.4598 45.6201 20.4747 47.3963 22.5047C49.1724 24.5347 49.7073 27.3681 48.9986 31.0059C48.7069 32.5045 48.2136 33.8745 47.5191 35.1158C46.8237 36.3579 45.9158 37.4936 44.7937 38.5234C43.4565 39.7727 41.9711 40.6629 40.3365 41.1931C38.702 41.7248 36.6201 41.9894 34.0891 41.9894H28.3532L26.7648 50.1485H20.0684L26.0431 19.4598H38.9203Z"
          fill="white"/>
    <path d="M64.9737 42.6211C64.7847 42.6211 64.6057 42.5369 64.4857 42.3912C64.3652 42.2457 64.3165 42.0543 64.3526 41.869L66.9955 28.2904C67.2469 26.999 67.1849 26.0721 66.8211 25.6805C66.5984 25.4411 65.9293 25.0396 63.9512 25.0396H59.1631L55.8402 42.1099C55.7824 42.4067 55.522 42.6211 55.2191 42.6211H48.5754C48.3864 42.6211 48.2074 42.5369 48.0871 42.3912C47.9669 42.2457 47.9182 42.0541 47.9543 41.869L53.9289 11.1801C53.9867 10.8834 54.2472 10.669 54.5501 10.669H61.1938C61.3827 10.669 61.5618 10.7533 61.682 10.8988C61.8022 11.0445 61.851 11.2359 61.8149 11.4211L60.3731 18.8281H65.524C69.448 18.8281 72.1088 19.5188 73.6586 20.9396C75.2383 22.3891 75.7312 24.7067 75.1238 27.8288L72.344 42.1099C72.2862 42.4067 72.0259 42.6211 71.7229 42.6211H64.9737Z"
          fill="black"/>
    <path d="M61.1938 10.0373H54.5502C53.9442 10.0373 53.4235 10.466 53.3079 11.0595L47.3332 41.7485C47.2611 42.1188 47.3585 42.5018 47.599 42.793C47.8394 43.0842 48.1975 43.2527 48.5755 43.2527H55.2192C55.8249 43.2527 56.3459 42.824 56.4614 42.2304L59.6848 25.6712H63.9513C65.926 25.6712 66.3405 26.0923 66.3572 26.1104C66.4769 26.239 66.6345 26.8349 66.3744 28.1698L63.7315 41.7485C63.6594 42.1188 63.7568 42.5018 63.9973 42.793C64.2377 43.0842 64.5958 43.2527 64.9738 43.2527H71.7229C72.3287 43.2527 72.8496 42.824 72.9652 42.2304L75.7448 27.9494C76.3971 24.5971 75.8391 22.0824 74.0868 20.4746C72.4147 18.9415 69.6138 18.1964 65.5241 18.1964H61.1405L62.4361 11.5417C62.508 11.1713 62.4108 10.7881 62.1704 10.4971C61.9299 10.2059 61.5718 10.0373 61.1938 10.0373ZM61.1938 11.3006L59.6055 19.4597H65.5241C69.2481 19.4597 71.8168 20.1087 73.2305 21.4048C74.6443 22.7019 75.0678 24.8034 74.5027 27.7085L71.7229 41.9893H64.9738L67.6167 28.4109C67.9175 26.8663 67.807 25.8126 67.2847 25.2509C66.7623 24.6891 65.651 24.4078 63.9513 24.4078H58.6414L55.2192 41.9893H48.5755L54.5502 11.3006H61.1938Z"
          fill="white"/>
    <path d="M85.636 36.515C88.1806 36.515 90.0803 36.0465 91.2822 35.123C92.4714 34.2092 93.2927 32.6256 93.7233 30.4164C94.1247 28.3517 93.9718 26.91 93.2688 26.132C92.5502 25.3374 90.9967 24.9344 88.6513 24.9344H84.5848L82.3304 36.515H85.636ZM72.3355 50.7803C72.1467 50.7803 71.9675 50.696 71.8475 50.5503C71.7272 50.4048 71.6783 50.2132 71.7144 50.0282L77.6891 19.3392C77.7471 19.0426 78.0073 18.8282 78.3104 18.8282H91.1871C95.2343 18.8282 98.2463 19.9252 100.14 22.0891C102.043 24.2642 102.631 27.3048 101.887 31.1264C101.584 32.6833 101.063 34.1292 100.338 35.4237C99.613 36.7197 98.6544 37.9188 97.4887 38.9884C96.0933 40.2922 94.514 41.2376 92.7989 41.7939C91.111 42.3428 88.9432 42.6212 86.356 42.6212H81.1417L79.6533 50.269C79.5953 50.5659 79.335 50.7803 79.0319 50.7803H72.3355Z"
          fill="black"/>
    <path d="M85.1065 25.566H88.6515C91.4821 25.566 92.4654 26.1861 92.7995 26.5556C93.354 27.1691 93.4586 28.4628 93.1021 30.2963C92.7018 32.3495 91.9596 33.8051 90.8964 34.6225C89.8077 35.4592 88.0377 35.8833 85.6361 35.8833H83.0982L85.1065 25.566ZM91.1873 18.1965H78.3103C77.7046 18.1965 77.1838 18.6252 77.0683 19.2187L71.0936 49.9076C71.0215 50.278 71.1189 50.661 71.3591 50.9522C71.5996 51.2434 71.9577 51.4119 72.3356 51.4119H79.0321C79.6378 51.4119 80.1587 50.9832 80.2743 50.3896L81.6636 43.2528H86.3561C89.0098 43.2528 91.2438 42.9639 92.9954 42.3943C94.7968 41.81 96.4546 40.8191 97.9214 39.4495C99.1346 38.3354 100.133 37.0849 100.891 35.7321C101.648 34.3788 102.192 32.8698 102.508 31.2468C103.291 27.2241 102.655 24.003 100.616 21.6734C98.5974 19.3663 95.4251 18.1965 91.1873 18.1965ZM81.563 37.1466H85.6361C88.336 37.1466 90.347 36.639 91.6684 35.6234C92.9901 34.6077 93.8812 32.9125 94.3444 30.537C94.7877 28.2563 94.5859 26.6468 93.7389 25.7091C92.891 24.7715 91.1955 24.3026 88.6515 24.3026H84.0633L81.563 37.1466ZM91.1873 19.4598C95.0611 19.4598 97.8871 20.4747 99.6634 22.5047C101.44 24.5347 101.974 27.3681 101.266 31.0059C100.974 32.5045 100.481 33.8745 99.7861 35.1158C99.0907 36.3579 98.1828 37.4936 97.0607 38.5234C95.7235 39.7727 94.2381 40.6629 92.6035 41.1931C90.969 41.7248 88.8871 41.9894 86.3561 41.9894H80.6202L79.0321 50.1485H72.3356L78.3103 19.4598H91.1873Z"
          fill="white"/>
    <defs>
        <radialGradient id="paint0_radial_114_130" cx="0" cy="0" r="1" gradientUnits="userSpaceOnUse"
                        gradientTransform="translate(36.6984 13.143) scale(76.5728 76.4445)">
            <stop stop-color="#AEB2D5"/>
            <stop offset="0.3" stop-color="#AEB2D5"/>
            <stop offset="0.75" stop-color="#484C89"/>
            <stop offset="1" stop-color="#484C89"/>
        </radialGradient>
    </defs>
</svg>