<?xml version="1.0" encoding="utf-8"?>
<svg width="120" height="106" viewBox="0 0 120 106" fill="none" xmlns="http://www.w3.org/2000/svg">
    <path d="M60 63.5417C65.907 63.5417 70.6956 58.822 70.6956 52.9999C70.6956 47.1778 65.907 42.458 60 42.458C54.0929 42.458 49.3043 47.1778 49.3043 52.9999C49.3043 58.822 54.0929 63.5417 60 63.5417Z"
          fill="#61DAFB"/>
    <path d="M60 74.598C91.6963 74.598 117.391 64.9283 117.391 53C117.391 41.0718 91.6963 31.4021 60 31.4021C28.3036 31.4021 2.60864 41.0718 2.60864 53C2.60864 64.9283 28.3036 74.598 60 74.598Z"
          stroke="#61DAFB"/>
    <path d="M41.0226 63.799C56.8708 90.8541 78.2147 107.952 88.6955 101.988C99.1764 96.0235 94.8253 69.2562 78.9771 42.201C63.129 15.1459 41.7851 -1.95176 31.3042 4.01235C20.8234 9.97646 25.1745 36.7438 41.0226 63.799Z"
          stroke="#61DAFB"/>
    <path d="M41.0227 42.201C25.1745 69.2561 20.8234 96.0235 31.3043 101.988C41.7851 107.952 63.129 90.8541 78.9772 63.7989C94.8254 36.7438 99.1764 9.97641 88.6956 4.0123C78.2148 -1.9518 56.8709 15.1458 41.0227 42.201Z"
          stroke="#61DAFB"/>
</svg>