<?xml version="1.0" encoding="utf-8"?>
<svg width="120" height="120" viewBox="0 0 120 120" fill="none" xmlns="http://www.w3.org/2000/svg">
    <path d="M94.64 70.895C93.57 71.345 92.505 71.57 91.425 71.57C89.715 71.57 88.175 71.275 86.81 70.68C85.4951 70.1225 84.3177 69.2847 83.36 68.225C82.425 67.18 81.7 65.96 81.2 64.55C80.7 63.14 80.455 61.62 80.455 59.995C80.455 58.32 80.705 56.78 81.2 55.345C81.7 53.91 82.41 52.665 83.345 51.61C84.2972 50.532 85.4751 49.6767 86.795 49.105C88.2516 48.4782 89.8244 48.1664 91.41 48.19C92.56 48.19 93.665 48.37 94.73 48.71C95.8 49.055 96.77 49.565 97.635 50.23C98.5 50.895 99.215 51.725 99.77 52.71C100.346 53.7521 100.697 54.9037 100.8 56.09H96.125C95.83 54.845 95.27 53.905 94.44 53.28C93.5614 52.6377 92.4928 52.3084 91.405 52.345C90.3 52.345 89.365 52.56 88.595 52.985C87.825 53.41 87.195 53.98 86.72 54.705C86.245 55.43 85.89 56.245 85.675 57.16C85.46 58.075 85.345 59.02 85.345 60.005C85.345 60.94 85.45 61.855 85.675 62.745C85.89 63.635 86.245 64.43 86.72 65.14C87.195 65.85 87.825 66.42 88.595 66.85C89.365 67.28 90.305 67.49 91.405 67.49C93.03 67.49 94.29 67.075 95.175 66.255C96.065 65.435 96.575 64.25 96.73 62.685H91.795V59H101.155V71.065H98.035L97.535 68.54C96.7931 69.5652 95.7947 70.3773 94.64 70.895ZM109.12 48.75V66.91H120V71.05H104.225V48.75H109.12ZM13.925 59.995C13.925 56.45 15.64 53.115 18.665 50.185L24.21 71.29H28.03L33.405 52.215L38.705 71.29H42.535L49.14 47.01H44.84L40.535 65.635L35.34 47.005H31.4L26.205 65.63L22.005 47.47C29.45 42.345 41.345 39.02 54.745 39.02C67.305 39.02 78.565 41.665 86.05 46.245C77.89 38.57 63.225 33.185 46.475 33.175C20.805 33.175 0 45.18 0 59.995C0 74.81 20.805 86.83 46.465 86.83C63.155 86.83 77.77 81.455 85.965 73.83C78.48 78.385 67.26 80.97 54.745 80.97C32.195 80.965 13.925 71.585 13.925 59.995ZM59.895 57.23C59.3279 56.4138 58.5644 55.7535 57.675 55.31C56.7052 54.8454 55.6401 54.6143 54.565 54.635C53.26 54.635 52.085 54.87 51.065 55.335C50.1064 55.7743 49.2678 56.4381 48.62 57.27C47.4 58.825 46.76 61.02 46.76 63.615C46.76 64.765 46.925 65.855 47.245 66.83C47.5453 67.7741 48.0296 68.6492 48.67 69.405C49.975 70.925 51.835 71.73 54.055 71.73C55.22 71.73 56.165 71.61 56.96 71.36C57.65 71.145 58.11 70.86 58.49 70.615C59.4201 69.9953 60.1827 69.1554 60.71 68.17C61.16 67.34 61.385 66.555 61.435 66.155L61.47 65.88H58.305L58.295 66.105C58.21 67.135 56.86 68.975 54.45 68.975C51.01 68.975 50.19 66.485 50.13 64.29H61.66V64.04C61.6756 62.7508 61.5329 61.4645 61.235 60.21C60.9697 59.1447 60.5159 58.1355 59.895 57.23ZM54.2 57.48C56.75 57.48 58.115 58.855 58.365 61.68H50.11C50.235 59.39 52.05 57.48 54.2 57.48ZM77.59 59.555C77.3068 58.6211 76.8524 57.7479 76.25 56.98C75.6612 56.2463 74.9143 55.6549 74.065 55.25C73.1473 54.8248 72.1464 54.6095 71.135 54.62C70.2112 54.6153 69.3001 54.8349 68.48 55.26C67.814 55.6039 67.2252 56.0804 66.75 56.66V49.21H63.595V71.275H66.595V69.77C66.8918 70.1655 67.2476 70.5128 67.65 70.8C68.505 71.415 69.56 71.725 70.78 71.725C72.095 71.725 73.285 71.43 74.28 70.845C75.17 70.325 75.93 69.575 76.52 68.625C77.0688 67.7226 77.4658 66.7361 77.695 65.705C77.9247 64.7165 78.0404 63.7049 78.04 62.69C78.0587 61.6277 77.9068 60.5692 77.59 59.555ZM74.755 63.14C74.755 64.87 74.41 66.32 73.745 67.34C73.4296 67.8543 72.9834 68.2756 72.452 68.5611C71.9205 68.8466 71.3229 68.986 70.72 68.965C68.835 68.965 66.625 67.65 66.625 63.925C66.625 62.145 66.85 60.77 67.3 59.725C67.95 58.22 69.055 57.495 70.655 57.495C72.365 57.495 73.515 58.16 74.155 59.545C74.685 60.68 74.755 62.07 74.755 63.14Z"
          fill="black"/>
</svg>
