<?xml version="1.0" encoding="utf-8"?>
<svg width="120" height="120" viewBox="0 0 120 120" fill="none" xmlns="http://www.w3.org/2000/svg">
    <path d="M21.25 0H98.75C110.5 0 120 9.74359 120 21.7949V98.2051C120 110.256 110.5 120 98.75 120H21.25C9.5 120 0 110.256 0 98.2051V21.7949C0 9.74359 9.5 0 21.25 0Z"
          fill="#470137"/>
    <path d="M63.1001 31.5385L48.1001 56.9231L64.1001 83.8462C64.2001 84.0513 64.2501 84.2565 64.2001 84.4616C64.1501 84.6667 63.9501 84.5129 63.6501 84.5642H52.2001C51.4001 84.5642 50.8501 84.5129 50.5001 84.0001C49.4501 81.8462 48.3501 79.7436 47.3001 77.5898C46.2501 75.4872 45.1001 73.3334 43.9001 71.1283C42.7001 68.9231 41.5001 66.718 40.3001 64.4616H40.2001C39.1501 66.6667 38.0001 68.8719 36.8501 71.077C35.7001 73.2821 34.5501 75.4872 33.4501 77.6411C32.3001 79.7949 31.1501 82.0001 30.0001 84.1026C29.8001 84.6154 29.4001 84.6667 28.8501 84.6667H17.8501C17.6501 84.6667 17.5001 84.7693 17.5001 84.5129C17.4501 84.3077 17.5001 84.1026 17.6001 83.9488L33.1501 57.7949L18.0001 31.4872C17.8501 31.2821 17.8001 31.077 17.9001 30.9744C18.0001 30.8206 18.2001 30.7693 18.4001 30.7693H29.7501C30.0001 30.7693 30.2501 30.8206 30.4501 30.8719C30.6501 30.9744 30.8001 31.1283 30.9501 31.3334C31.9001 33.5385 33.0001 35.7436 34.1501 37.9488C35.3501 40.1539 36.5001 42.3077 37.7501 44.4616C38.9501 46.6154 40.0501 48.7693 41.1001 50.9744H41.2001C42.2501 48.718 43.3501 46.5129 44.4501 44.359C45.5501 42.2052 46.7001 40.0513 47.8501 37.8975C49.0001 35.7436 50.1001 33.5385 51.2001 31.436C51.2501 31.2308 51.3501 31.0257 51.5001 30.9231C51.7001 30.8206 51.9001 30.7693 52.1501 30.8206H62.7001C62.9501 30.7693 63.2001 30.9231 63.2501 31.1795C63.3001 31.2308 63.2001 31.436 63.1001 31.5385Z"
          fill="#FF61F6"/>
    <path d="M86.2001 85.6411C82.5001 85.6924 78.8001 84.9232 75.4501 83.3334C72.3001 81.8462 69.7001 79.3847 67.9001 76.3591C66.0501 73.2308 65.1501 69.3334 65.1501 64.6667C65.1001 60.8719 66.0501 57.1283 67.9001 53.8462C69.8001 50.5129 72.5501 47.7437 75.8501 45.8975C79.3501 43.8975 83.5501 42.9232 88.5001 42.9232C88.7501 42.9232 89.1001 42.9232 89.5501 42.9744C90.0001 43.0257 90.5001 43.0257 91.1001 43.077V26.8719C91.1001 26.5129 91.2501 26.3078 91.6001 26.3078H101.75C102 26.2565 102.2 26.4616 102.25 26.6667C102.25 26.718 102.25 26.7693 102.25 26.7693V75.5898C102.25 76.5129 102.3 77.5385 102.35 78.6667C102.45 79.7437 102.5 80.7693 102.55 81.6411C102.55 82.0001 102.4 82.3078 102.05 82.4616C99.4501 83.5898 96.7001 84.4103 93.9001 84.9232C91.3501 85.3847 88.8001 85.6411 86.2001 85.6411ZM91.1001 75.3847V52.8206C90.6501 52.718 90.2001 52.6155 89.7501 52.5642C89.2001 52.5129 88.6501 52.4616 88.1001 52.4616C86.1501 52.4616 84.2001 52.8719 82.4501 53.795C80.7501 54.6667 79.3001 55.9488 78.2001 57.5898C77.1001 59.2309 76.5501 61.436 76.5501 64.1026C76.5001 65.8975 76.8001 67.6924 77.4001 69.3847C77.9001 70.7693 78.6501 72.0001 79.6501 73.0257C80.6001 73.9488 81.7501 74.6667 83.0501 75.077C84.4001 75.5385 85.8001 75.7437 87.2001 75.7437C87.9501 75.7437 88.6501 75.6924 89.3001 75.6411C89.9501 75.6924 90.5001 75.5898 91.1001 75.3847Z"
          fill="#FF61F6"/>
</svg>